IKResults
version=1
nRows=11
nColumns=40
inDegrees=yes

Units are S.I. units (second, meters, Newtons, ...)
Angles are in degrees.

endheader
time	pelvis_tilt	pelvis_list	pelvis_rotation	pelvis_tx	pelvis_ty	pelvis_tz	hip_flexion_r	hip_adduction_r	hip_rotation_r	knee_angle_r	knee_angle_r_beta	ankle_angle_r	subtalar_angle_r	mtp_angle_r	hip_flexion_l	hip_adduction_l	hip_rotation_l	knee_angle_l	knee_angle_l_beta	ankle_angle_l	subtalar_angle_l	mtp_angle_l	lumbar_extension	lumbar_bending	lumbar_rotation	arm_flex_r	arm_add_r	arm_rot_r	elbow_flex_r	pro_sup_r	wrist_flex_r	wrist_dev_r	arm_flex_l	arm_add_l	arm_rot_l	elbow_flex_l	pro_sup_l	wrist_flex_l	wrist_dev_l
      0.00000000	     14.02586843	      0.81984843	      6.49776502	     -1.23152809	      0.92140518	     -1.45454264	     13.76665226	     -4.16909683	    -32.40527111	    -18.21792935	     -0.31796285	      3.07534730	     10.72285342	    -14.15794472	    -27.32188447	      5.06855787	     14.74214791	    -14.76866874	     -0.25776190	     16.34350468	     -0.64626120	     -9.67975268	    -22.63982956	      1.89938561	     -6.46043758	    -14.51757075	    -11.55402001	     -8.47536757	     14.62962652	     89.95437384	      0.00000000	      0.00000000	     15.60960531	     17.02328299	     10.18491502	     44.01420867	     89.95437384	      0.00000000	      0.00000000
      0.01000000	     13.64298308	      0.85761461	      6.24445114	     -1.21829172	      0.91882919	     -1.45552255	     14.57625375	     -4.36772128	    -33.43695446	    -17.15184988	     -0.29935625	      3.57886971	     10.77832162	    -14.17032692	    -27.78819895	      4.86496431	     14.91697192	    -14.88657344	     -0.25981972	     16.53064467	     -0.60849575	     -9.68469216	    -22.28885590	      1.76887573	     -6.15909904	    -14.84901662	    -11.64310387	     -8.40554349	     14.07667842	     89.95437384	      0.00000000	      0.00000000	     16.47688816	     16.91228325	     10.20573857	     45.24712930	     89.95437384	      0.00000000	      0.00000000
      0.02000000	     13.63640456	      0.17972216	      7.04556041	     -1.20458839	      0.91713956	     -1.45673738	     14.38028497	     -3.74502718	    -34.95351936	    -15.56413355	     -0.27164538	      3.82623005	     12.59762537	    -14.61793572	    -28.10611670	      6.08838810	     14.57476484	    -15.83679716	     -0.27640425	     16.56301888	     -0.38454268	     -9.81591583	    -22.24690847	      2.66025050	     -6.94146743	    -14.84338537	    -11.71137476	     -8.17945917	     13.50113808	     89.95437384	      0.00000000	      0.00000000	     16.54261127	     17.12741764	     10.55829443	     47.45459357	     89.95437384	      0.00000000	      0.00000000
      0.03000000	     13.41337558	     -0.09087572	      7.44769834	     -1.19061548	      0.91534384	     -1.45796210	     14.80987292	     -3.69490769	    -35.02136552	    -15.41877005	     -0.26910830	      4.22602419	     12.48169191	    -14.58329079	    -28.36516260	      6.64141804	     14.19254320	    -16.56993253	     -0.28919988	     16.33213601	     -0.27394815	     -9.74276658	    -21.97881144	      3.04169556	     -7.29286296	    -15.12983257	    -11.80730652	     -8.02713921	     13.28300279	     89.95437384	      0.00000000	      0.00000000	     16.81119098	     17.13333795	     10.69069712	     49.15673263	     89.95437384	      0.00000000	      0.00000000
      0.04000000	     13.06757895	     -0.12889302	      7.68254660	     -1.17613095	      0.91369049	     -1.45901993	     15.37360283	     -3.91585621	    -34.24023494	    -15.88040859	     -0.27716542	      4.09264685	     12.02352851	    -14.28785329	    -28.57980134	      6.86357778	     13.82356392	    -17.20776442	     -0.30033215	     15.84937166	     -0.21088166	     -9.54599314	    -21.50112201	      3.11016606	     -7.35170048	    -15.68236719	    -11.84838005	     -7.96802069	     13.35211098	     89.95437384	      0.00000000	      0.00000000	     17.32863948	     16.91312895	     10.70971763	     50.15573076	     89.95437384	      0.00000000	      0.00000000
      0.05000000	     12.96538254	     -0.69102788	      8.46593656	     -1.16135483	      0.91253597	     -1.46007505	     15.72628321	     -3.62267765	    -33.59778807	    -17.08258112	     -0.29814729	      4.42631680	      9.59481247	    -13.72470473	    -28.80580834	      7.87498703	     12.47353202	    -18.17956292	     -0.31729323	     15.35461729	      0.80315899	     -9.30200990	    -21.28191903	      3.88559489	     -8.21583427	    -15.69211361	    -12.02625375	     -7.44033887	     13.12046928	     89.95437384	      0.00000000	      0.00000000	     16.87619259	     16.93826366	     11.35082253	     52.41205313	     89.95437384	      0.00000000	      0.00000000
      0.06000000	     12.70485325	     -1.02616421	      8.80053461	     -1.14591671	      0.91142486	     -1.46077323	     16.26676462	     -3.56072880	    -32.38284833	    -18.78472183	     -0.32785525	      4.46230520	      7.79067016	    -13.14876936	    -28.97429507	      8.48268574	     11.80551195	    -19.12061975	     -0.33371777	     14.44196521	      1.30495929	     -8.97241074	    -20.81426454	      4.31048705	     -8.44060540	    -16.10221294	    -12.16368516	     -7.40768643	     13.29659227	     89.95437384	      0.00000000	      0.00000000	     16.68851634	     16.82045729	     11.46214399	     53.90840489	     89.95437384	      0.00000000	      0.00000000
      0.07000000	     12.35898903	     -1.41585107	      9.04473216	     -1.13051501	      0.91066896	     -1.46072008	     16.67261344	     -2.83503408	    -29.31855356	    -19.91911922	     -0.34765421	      4.13309311	      3.00360402	    -11.58819651	    -29.05227597	      8.95709100	     10.38043919	    -19.97549528	     -0.34863816	     13.61905491	      3.18397512	     -8.59181081	    -20.27461636	      4.67102716	     -8.63551250	    -16.25510398	    -12.24251584	     -7.02309902	     13.24957738	     89.95437384	      0.00000000	      0.00000000	     16.38034433	     16.62355201	     11.85945666	     55.38257350	     89.95437384	      0.00000000	      0.00000000
      0.08000000	     12.16212667	     -1.85825247	      9.34182288	     -1.11406256	      0.91015895	     -1.46083101	     16.83077376	     -2.40630214	    -27.79345612	    -21.61537436	     -0.37725945	      4.43105887	      1.90704433	    -11.08748134	    -29.13283972	      9.69151805	      9.84326573	    -21.16317986	     -0.36936717	     12.33755605	      3.81127849	     -8.23905736	    -19.74987999	      5.14561597	     -8.74610048	    -16.58682205	    -12.32466043	     -7.03053741	     13.35095225	     89.95437384	      0.00000000	      0.00000000	     15.93829661	     16.35671073	     11.99070454	     56.69606611	     89.95437384	      0.00000000	      0.00000000
      0.09000000	     11.93574246	     -2.24122735	      9.53348874	     -1.09783460	      0.91027435	     -1.46062064	     16.57688217	     -1.26528653	    -24.38152234	    -22.08050315	     -0.38537748	      3.72948694	     -2.86346036	     -9.13607929	    -29.13500651	     10.07858112	      8.39021009	    -22.34483884	     -0.38999101	     10.99474121	      6.14271295	     -7.66364948	    -19.24635535	      5.52253314	     -8.89600980	    -16.66844879	    -12.41576713	     -6.91804209	     13.39110564	     89.95437384	      0.00000000	      0.00000000	     15.38858542	     16.09301584	     12.31784916	     57.84457620	     89.95437384	      0.00000000	      0.00000000
      0.10000000	     11.91897702	     -2.55786323	      9.75393466	     -1.08081621	      0.91090305	     -1.46051032	     16.41131705	     -0.99600295	    -24.79121048	    -23.49985774	     -0.41014989	      2.24140686	     -4.15331168	     -8.37896305	    -29.16290534	     10.63937568	      7.96165404	    -23.88192987	     -0.41681831	      8.88144613	      7.11310393	     -7.22052862	    -18.87501274	      5.88295110	     -8.97968722	    -16.83498498	    -12.49660143	     -6.90049430	     13.45745454	     89.95437384	      0.00000000	      0.00000000	     14.75739803	     15.77745123	     12.47820459	     58.82295504	     89.95437384	      0.00000000	      0.00000000
